<svg version="1" xmlns="http://www.w3.org/2000/svg" width="682.667" height="682.667" viewBox="0 0 512.000000 512.000000"><path d="M225 110.7c-57.1 4.5-114 26.6-159.5 62-15.3 11.9-50.1 43-53.8 48-5 6.9-7.6 12.4-9.8 21-4.1 16.1-1.2 32.1 8.3 46.4 5.7 8.5 46.6 44.9 65.8 58.5 85.4 60.5 192 72.1 287.5 31.4 19.2-8.2 35.7-17.5 53.1-30.1 20.4-14.8 34.9-28.4 76.2-71.5l19.2-20.2-31.8-32.8c-40.7-42-56-55.3-81.7-70.9-45.9-27.9-99.9-42.8-153-42.3-8.8.1-18 .3-20.5.5zm-43 24.7c0 .2-2.1 1.6-4.7 3.2-25.7 14.8-49 44.3-59.1 74.9-8.6 25.6-8.6 59.4 0 85 10.1 30.6 33.4 60.1 59.1 74.9 2.6 1.6 4.7 2.9 4.7 3.1 0 .2-4.1-.8-9.2-2.2-32.1-8.8-68.4-27-94.8-47.6-9.2-7.2-44.7-38.3-49.3-43.2-3.8-4-7.8-10.8-9.1-15.5-.7-2.3-.6-2.2 1.2.5 1 1.6 5.2 5.9 9.2 9.5l7.3 6.4 5.3-5.7c12.6-13.5 12.2-33.7-.8-46.5-2.3-2.3-4.6-4.2-5.1-4.2-1.4 0-14.7 12.2-16.3 15l-1.5 2.5.7-2.5c2.4-9 7-14.2 32.9-37 40.2-35.4 74.2-55 116.9-67.6 11.5-3.4 12.6-3.7 12.6-3zm149 5.2c17.6 5.6 40.2 15.6 54.5 24.1 26.7 15.9 42.8 29.6 79.5 67.7l23.1 24-8.3 8.5c-27.8 28.7-45.5 46.4-54.3 54-22.2 19.1-45.7 33.7-73 45-9.6 4.1-31.5 11.4-32.1 10.8-.2-.2 2.5-2.2 5.9-4.4C363.8 345.5 387 301.9 387 256c0-47.8-24-90.9-65.6-117.7-2.3-1.5-1.6-1.3 9.6 2.3zm-101.9 58.2c14.5 7.6 14.5 29.2 0 36.9-7.9 4.2-18.2 2.7-24.8-3.6-8.6-8.1-8-23.7 1.1-30.6 7.9-6 15.6-6.9 23.7-2.7z"/></svg>