<svg xmlns="http://www.w3.org/2000/svg" viewBox="0 0 1440 900" preserveAspectRatio="xMidYMid slice">
    <path d="M795,519L638,333L670,592Z" fill="#9c98c7" stroke="#9c98c7" stroke-width="1.51"/>
    <path d="M795,519L776,289L638,333Z" fill="#a6a3ce" stroke="#a6a3ce" stroke-width="1.51"/>
    <path d="M776,289L782,193L638,333Z" fill="#b5b3d6" stroke="#b5b3d6" stroke-width="1.51"/>
    <path d="M1081,289L782,193L776,289Z" fill="#aaa8d2" stroke="#aaa8d2" stroke-width="1.51"/>
    <path d="M670,592L897,839L795,519Z" fill="#8175b6" stroke="#8175b6" stroke-width="1.51"/>
    <path d="M402,583L649,748L670,592Z" fill="#9489c1" stroke="#9489c1" stroke-width="1.51"/>
    <path d="M638,333L402,583L670,592Z" fill="#a4a1cd" stroke="#a4a1cd" stroke-width="1.51"/>
    <path d="M638,333L329,361L402,583Z" fill="#b7b5d7" stroke="#b7b5d7" stroke-width="1.51"/>
    <path d="M782,193L596,141L638,333Z" fill="#c0bedc" stroke="#c0bedc" stroke-width="1.51"/>
    <path d="M358,189L329,361L638,333Z" fill="#cacae3" stroke="#cacae3" stroke-width="1.51"/>
    <path d="M795,519L1081,289L776,289Z" fill="#9c9ac9" stroke="#9c9ac9" stroke-width="1.51"/>
    <path d="M897,839L1016,608L795,519Z" fill="#776ab0" stroke="#776ab0" stroke-width="1.51"/>
    <path d="M596,141L358,189L638,333Z" fill="#cccce4" stroke="#cccce4" stroke-width="1.51"/>
    <path d="M649,748L897,839L670,592Z" fill="#7f6ab1" stroke="#7f6ab1" stroke-width="1.51"/>
    <path d="M1016,608L1081,289L795,519Z" fill="#8880bc" stroke="#8880bc" stroke-width="1.51"/>
    <path d="M402,583L398,841L649,748Z" fill="#9481bd" stroke="#9481bd" stroke-width="1.51"/>
    <path d="M649,748L639,973L897,839Z" fill="#7558a5" stroke="#7558a5" stroke-width="1.51"/>
    <path d="M227,816L398,841L402,583Z" fill="#9e87c1" stroke="#9e87c1" stroke-width="1.51"/>
    <path d="M1016,608L1190,361L1081,289Z" fill="#8877b7" stroke="#8877b7" stroke-width="1.51"/>
    <path d="M897,839L1006,807L1016,608Z" fill="#6a50a3" stroke="#6a50a3" stroke-width="1.51"/>
    <path d="M329,361L196,559L402,583Z" fill="#b8b5d8" stroke="#b8b5d8" stroke-width="1.51"/>
    <path d="M168,376L196,559L329,361Z" fill="#c6c3de" stroke="#c6c3de" stroke-width="1.51"/>
    <path d="M1081,289L1099,195L782,193Z" fill="#a89fcd" stroke="#a89fcd" stroke-width="1.51"/>
    <path d="M671,-151L398,-34L596,141Z" fill="#dadaeb" stroke="#dadaeb" stroke-width="1.51"/>
    <path d="M1190,361L1099,195L1081,289Z" fill="#9987c1" stroke="#9987c1" stroke-width="1.51"/>
    <path d="M398,841L639,973L649,748Z" fill="#8367af" stroke="#8367af" stroke-width="1.51"/>
    <path d="M897,839L1094,1054L1006,807Z" fill="#5b3995" stroke="#5b3995" stroke-width="1.51"/>
    <path d="M358,189L168,376L329,361Z" fill="#d3d3e8" stroke="#d3d3e8" stroke-width="1.51"/>
    <path d="M1326,558L1190,361L1016,608Z" fill="#7763ad" stroke="#7763ad" stroke-width="1.51"/>
    <path d="M358,189L243,99L168,376Z" fill="#e0e0ee" stroke="#e0e0ee" stroke-width="1.51"/>
    <path d="M398,-34L243,99L358,189Z" fill="#e7e6f1" stroke="#e7e6f1" stroke-width="1.51"/>
    <path d="M398,-34L358,189L596,141Z" fill="#deddec" stroke="#deddec" stroke-width="1.51"/>
    <path d="M783,-140L596,141L782,193Z" fill="#c9c6e0" stroke="#c9c6e0" stroke-width="1.51"/>
    <path d="M196,559L227,816L402,583Z" fill="#aa9ccc" stroke="#aa9ccc" stroke-width="1.51"/>
    <path d="M398,841L448,998L639,973Z" fill="#8566ae" stroke="#8566ae" stroke-width="1.51"/>
    <path d="M225,942L227,816L-16,821Z" fill="#9f7fbd" stroke="#9f7fbd" stroke-width="1.51"/>
    <path d="M225,942L448,998L398,841Z" fill="#9070b4" stroke="#9070b4" stroke-width="1.51"/>
    <path d="M1006,807L1198,772L1016,608Z" fill="#66489e" stroke="#66489e" stroke-width="1.51"/>
    <path d="M1094,1054L1198,772L1006,807Z" fill="#562f91" stroke="#562f91" stroke-width="1.51"/>
    <path d="M1078,-37L783,-140L782,193Z" fill="#bfbbdc" stroke="#bfbbdc" stroke-width="1.51"/>
    <path d="M783,-140L671,-151L596,141Z" fill="#d0cde4" stroke="#d0cde4" stroke-width="1.51"/>
    <path d="M639,973L870,1045L897,839Z" fill="#6b4d9f" stroke="#6b4d9f" stroke-width="1.51"/>
    <path d="M806,1188L870,1045L639,973Z" fill="#6d4fa0" stroke="#6d4fa0" stroke-width="1.51"/>
    <path d="M1099,195L1078,-37L782,193Z" fill="#b2a8d2" stroke="#b2a8d2" stroke-width="1.51"/>
    <path d="M1205,96L1078,-37L1099,195Z" fill="#ac98cb" stroke="#ac98cb" stroke-width="1.51"/>
    <path d="M1471,194L1205,96L1190,361Z" fill="#987dbc" stroke="#987dbc" stroke-width="1.51"/>
    <path d="M1190,361L1205,96L1099,195Z" fill="#9f8ac3" stroke="#9f8ac3" stroke-width="1.51"/>
    <path d="M1198,772L1326,558L1016,608Z" fill="#674ba1" stroke="#674ba1" stroke-width="1.51"/>
    <path d="M-26,600L227,816L196,559Z" fill="#b0a2ce" stroke="#b0a2ce" stroke-width="1.51"/>
    <path d="M227,816L225,942L398,841Z" fill="#9778b8" stroke="#9778b8" stroke-width="1.51"/>
    <path d="M398,-34L221,-82L243,99Z" fill="#efeef6" stroke="#efeef6" stroke-width="1.51"/>
    <path d="M-17,115L-62,370L168,376Z" fill="#e1e1ef" stroke="#e1e1ef" stroke-width="1.51"/>
    <path d="M359,-246L221,-82L398,-34Z" fill="#edecf5" stroke="#edecf5" stroke-width="1.51"/>
    <path d="M168,376L-26,600L196,559Z" fill="#c1bddc" stroke="#c1bddc" stroke-width="1.51"/>
    <path d="M-62,370L-26,600L168,376Z" fill="#ccc8e2" stroke="#ccc8e2" stroke-width="1.51"/>
    <path d="M671,-151L625,-260L398,-34Z" fill="#dad9eb" stroke="#dad9eb" stroke-width="1.51"/>
    <path d="M783,-140L625,-260L671,-151Z" fill="#cfcce4" stroke="#cfcce4" stroke-width="1.51"/>
    <path d="M783,-346L625,-260L783,-140Z" fill="#ccc8e2" stroke="#ccc8e2" stroke-width="1.51"/>
    <path d="M1490,792L1443,496L1326,558Z" fill="#5d3c97" stroke="#5d3c97" stroke-width="1.51"/>
    <path d="M870,1045L1094,1054L897,839Z" fill="#5f3f98" stroke="#5f3f98" stroke-width="1.51"/>
    <path d="M870,1045L1045,1224L1094,1054Z" fill="#5b3895" stroke="#5b3895" stroke-width="1.51"/>
    <path d="M675,1256L806,1188L639,973Z" fill="#7354a3" stroke="#7354a3" stroke-width="1.51"/>
    <path d="M675,1256L639,973L448,998Z" fill="#7d5faa" stroke="#7d5faa" stroke-width="1.51"/>
    <path d="M-17,115L168,376L243,99Z" fill="#e9e8f3" stroke="#e9e8f3" stroke-width="1.51"/>
    <path d="M1326,558L1443,496L1190,361Z" fill="#7559a7" stroke="#7559a7" stroke-width="1.51"/>
    <path d="M1490,792L1326,558L1198,772Z" fill="#583092" stroke="#583092" stroke-width="1.51"/>
    <path d="M625,-260L359,-246L398,-34Z" fill="#e2e2f0" stroke="#e2e2f0" stroke-width="1.51"/>
    <path d="M8,-158L-17,115L221,-82Z" fill="#f9f8fb" stroke="#f9f8fb" stroke-width="1.51"/>
    <path d="M221,-82L-17,115L243,99Z" fill="#f4f2f8" stroke="#f4f2f8" stroke-width="1.51"/>
    <path d="M-26,600L-16,821L227,816Z" fill="#ac93c8" stroke="#ac93c8" stroke-width="1.51"/>
    <path d="M-68,1035L-16,821L-289,801Z" fill="#a281be" stroke="#a281be" stroke-width="1.51"/>
    <path d="M225,942L350,1172L448,998Z" fill="#9171b4" stroke="#9171b4" stroke-width="1.51"/>
    <path d="M135,1173L350,1172L225,942Z" fill="#9776b7" stroke="#9776b7" stroke-width="1.51"/>
    <path d="M1113,-323L783,-346L783,-140Z" fill="#bfbbdc" stroke="#bfbbdc" stroke-width="1.51"/>
    <path d="M1205,96L1208,-128L1078,-37Z" fill="#af99cb" stroke="#af99cb" stroke-width="1.51"/>
    <path d="M1448,-48L1208,-128L1205,96Z" fill="#a98bc4" stroke="#a98bc4" stroke-width="1.51"/>
    <path d="M1266,1172L1262,1051L1094,1054Z" fill="#4d1e89" stroke="#4d1e89" stroke-width="1.51"/>
    <path d="M350,1172L675,1256L448,998Z" fill="#8567ae" stroke="#8567ae" stroke-width="1.51"/>
    <path d="M625,-260L247,-343L359,-246Z" fill="#e7e6f2" stroke="#e7e6f2" stroke-width="1.51"/>
    <path d="M1113,-323L783,-140L1078,-37Z" fill="#b9aed5" stroke="#b9aed5" stroke-width="1.51"/>
    <path d="M1094,1054L1262,1051L1198,772Z" fill="#4f218a" stroke="#4f218a" stroke-width="1.51"/>
    <path d="M1045,1224L870,1045L806,1188Z" fill="#62449b" stroke="#62449b" stroke-width="1.51"/>
    <path d="M1533,368L1471,194L1190,361Z" fill="#876ab0" stroke="#876ab0" stroke-width="1.51"/>
    <path d="M675,1256L1045,1224L806,1188Z" fill="#67499e" stroke="#67499e" stroke-width="1.51"/>
    <path d="M1443,496L1533,368L1190,361Z" fill="#7a5da8" stroke="#7a5da8" stroke-width="1.51"/>
    <path d="M1631,496L1533,368L1443,496Z" fill="#7152a2" stroke="#7152a2" stroke-width="1.51"/>
    <path d="M1262,1051L1490,792L1198,772Z" fill="#491585" stroke="#491585" stroke-width="1.51"/>
    <path d="M350,1172L-102,1272L675,1256Z" fill="#9372b5" stroke="#9372b5" stroke-width="1.51"/>
    <path d="M-68,1035L135,1173L225,942Z" fill="#9d7bbb" stroke="#9d7bbb" stroke-width="1.51"/>
    <path d="M1211,-304L1113,-323L1208,-128Z" fill="#ae97ca" stroke="#ae97ca" stroke-width="1.51"/>
    <path d="M1208,-128L1113,-323L1078,-37Z" fill="#b19ccd" stroke="#b19ccd" stroke-width="1.51"/>
    <path d="M247,-343L8,-158L221,-82Z" fill="#f6f5f9" stroke="#f6f5f9" stroke-width="1.51"/>
    <path d="M-296,291L-278,623L-62,370Z" fill="#d0cde4" stroke="#d0cde4" stroke-width="1.51"/>
    <path d="M359,-246L247,-343L221,-82Z" fill="#f0eff6" stroke="#f0eff6" stroke-width="1.51"/>
    <path d="M783,-346L247,-343L625,-260Z" fill="#dbdbec" stroke="#dbdbec" stroke-width="1.51"/>
    <path d="M1471,194L1448,-48L1205,96Z" fill="#a080bd" stroke="#a080bd" stroke-width="1.51"/>
    <path d="M1731,140L1448,-48L1471,194Z" fill="#9c7ab9" stroke="#9c7ab9" stroke-width="1.51"/>
    <path d="M1262,1051L1533,1033L1490,792Z" fill="#40017d" stroke="#40017d" stroke-width="1.51"/>
    <path d="M1045,1224L1266,1172L1094,1054Z" fill="#52288d" stroke="#52288d" stroke-width="1.51"/>
    <path d="M1478,-345L1211,-304L1208,-128Z" fill="#a88ac4" stroke="#a88ac4" stroke-width="1.51"/>
    <path d="M-16,821L-68,1035L225,942Z" fill="#9f7dbc" stroke="#9f7dbc" stroke-width="1.51"/>
    <path d="M-278,623L-16,821L-26,600Z" fill="#b3a2cf" stroke="#b3a2cf" stroke-width="1.51"/>
    <path d="M1533,368L1695,280L1471,194Z" fill="#896ab0" stroke="#896ab0" stroke-width="1.51"/>
    <path d="M1490,792L1631,496L1443,496Z" fill="#5f3f98" stroke="#5f3f98" stroke-width="1.51"/>
    <path d="M-232,84L-62,370L-17,115Z" fill="#eeedf5" stroke="#eeedf5" stroke-width="1.51"/>
    <path d="M-62,370L-278,623L-26,600Z" fill="#c2bedd" stroke="#c2bedd" stroke-width="1.51"/>
    <path d="M-214,-146L-232,84L-17,115Z" fill="#fbfafc" stroke="#fbfafc" stroke-width="1.51"/>
    <path d="M-232,84L-296,291L-62,370Z" fill="#e8e7f2" stroke="#e8e7f2" stroke-width="1.51"/>
    <path d="M-278,623L-289,801L-16,821Z" fill="#ad95c9" stroke="#ad95c9" stroke-width="1.51"/>
    <path d="M-296,291L-289,801L-278,623Z" fill="#bdb8da" stroke="#bdb8da" stroke-width="1.51"/>
    <path d="M1490,792L1663,748L1631,496Z" fill="#552e8f" stroke="#552e8f" stroke-width="1.51"/>
    <path d="M1731,971L1663,748L1490,792Z" fill="#450e82" stroke="#450e82" stroke-width="1.51"/>
    <path d="M1460,1177L1533,1033L1262,1051Z" fill="#41037e" stroke="#41037e" stroke-width="1.51"/>
    <path d="M1631,496L1695,280L1533,368Z" fill="#7b5da8" stroke="#7b5da8" stroke-width="1.51"/>
    <path d="M1663,748L1695,280L1631,496Z" fill="#6a4c9f" stroke="#6a4c9f" stroke-width="1.51"/>
    <path d="M8,-158L-214,-146L-17,115Z" fill="#fcfbfd" stroke="#fcfbfd" stroke-width="1.51"/>
    <path d="M247,-343L-100,-254L8,-158Z" fill="#faf9fc" stroke="#faf9fc" stroke-width="1.51"/>
    <path d="M1045,1224L1460,1177L1266,1172Z" fill="#4a1786" stroke="#4a1786" stroke-width="1.51"/>
    <path d="M1266,1172L1460,1177L1262,1051Z" fill="#460f82" stroke="#460f82" stroke-width="1.51"/>
    <path d="M-100,-254L-214,-146L8,-158Z" fill="#fcfbfd" stroke="#fcfbfd" stroke-width="1.51"/>
    <path d="M-232,84L-289,-291L-296,291Z" fill="#faf9fc" stroke="#faf9fc" stroke-width="1.51"/>
    <path d="M1448,-48L1478,-345L1208,-128Z" fill="#a484c0" stroke="#a484c0" stroke-width="1.51"/>
    <path d="M1695,280L1731,140L1471,194Z" fill="#9271b5" stroke="#9271b5" stroke-width="1.51"/>
    <path d="M1731,971L1731,140L1695,280Z" fill="#7051a1" stroke="#7051a1" stroke-width="1.51"/>
    <path d="M-289,801L-297,994L-68,1035Z" fill="#a17fbd" stroke="#a17fbd" stroke-width="1.51"/>
    <path d="M-68,1035L-102,1272L135,1173Z" fill="#a17fbd" stroke="#a17fbd" stroke-width="1.51"/>
    <path d="M-296,291L-297,994L-289,801Z" fill="#b29fce" stroke="#b29fce" stroke-width="1.51"/>
    <path d="M135,1173L-102,1272L350,1172Z" fill="#9d7aba" stroke="#9d7aba" stroke-width="1.51"/>
    <path d="M-293,1204L-102,1272L-68,1035Z" fill="#a17fbd" stroke="#a17fbd" stroke-width="1.51"/>
    <path d="M1684,-276L1478,-345L1448,-48Z" fill="#a17fbd" stroke="#a17fbd" stroke-width="1.51"/>
    <path d="M1211,-304L1478,-345L1113,-323Z" fill="#aa8dc5" stroke="#aa8dc5" stroke-width="1.51"/>
    <path d="M1113,-323L1478,-345L783,-346Z" fill="#b19dcd" stroke="#b19dcd" stroke-width="1.51"/>
    <path d="M1731,140L1708,-60L1448,-48Z" fill="#a17ebc" stroke="#a17ebc" stroke-width="1.51"/>
    <path d="M1663,748L1731,971L1695,280Z" fill="#573091" stroke="#573091" stroke-width="1.51"/>
    <path d="M1533,1033L1731,971L1490,792Z" fill="#3f007d" stroke="#3f007d" stroke-width="1.51"/>
    <path d="M1758,1266L1731,971L1533,1033Z" fill="#3f007d" stroke="#3f007d" stroke-width="1.51"/>
    <path d="M-297,994L-293,1204L-68,1035Z" fill="#a17fbd" stroke="#a17fbd" stroke-width="1.51"/>
    <path d="M247,-343L-289,-291L-100,-254Z" fill="#fcfbfd" stroke="#fcfbfd" stroke-width="1.51"/>
    <path d="M-100,-254L-289,-291L-214,-146Z" fill="#fcfbfd" stroke="#fcfbfd" stroke-width="1.51"/>
    <path d="M-214,-146L-289,-291L-232,84Z" fill="#fcfbfd" stroke="#fcfbfd" stroke-width="1.51"/>
    <path d="M1731,140L1684,-276L1708,-60Z" fill="#a17fbd" stroke="#a17fbd" stroke-width="1.51"/>
    <path d="M1708,-60L1684,-276L1448,-48Z" fill="#a17fbd" stroke="#a17fbd" stroke-width="1.51"/>
    <path d="M1460,1177L1758,1266L1533,1033Z" fill="#3f007d" stroke="#3f007d" stroke-width="1.51"/>
    <path d="M1731,971L1758,1266L1731,140Z" fill="#491685" stroke="#491685" stroke-width="1.51"/>
    <path d="M1045,1224L1758,1266L1460,1177Z" fill="#40027e" stroke="#40027e" stroke-width="1.51"/>
    <path d="M675,1256L1758,1266L1045,1224Z" fill="#51258b" stroke="#51258b" stroke-width="1.51"/>
    <path d="M-102,1272L1758,1266L675,1256Z" fill="#6d4fa0" stroke="#6d4fa0" stroke-width="1.51"/>
</svg>