<svg xmlns="http://www.w3.org/2000/svg" width="1440" height="900"><path d="M694,461L656,523L782,558Z" fill="#7d9ae2" stroke="#7d9ae2" stroke-width="1.51"/><path d="M782,558L794,409L694,461Z" fill="#7d98e1" stroke="#7d98e1" stroke-width="1.51"/><path d="M782,558L885,507L794,409Z" fill="#7e9ee4" stroke="#7e9ee4" stroke-width="1.51"/><path d="M782,558L872,603L885,507Z" fill="#7fa6e6" stroke="#7fa6e6" stroke-width="1.51"/><path d="M753,731L872,603L782,558Z" fill="#80abe8" stroke="#80abe8" stroke-width="1.51"/><path d="M694,461L621,385L656,523Z" fill="#7c91df" stroke="#7c91df" stroke-width="1.51"/><path d="M766,325L621,385L694,461Z" fill="#7b8cdd" stroke="#7b8cdd" stroke-width="1.51"/><path d="M656,523L613,663L782,558Z" fill="#7e9ee4" stroke="#7e9ee4" stroke-width="1.51"/><path d="M592,668L613,663L501,598Z" fill="#7e9de3" stroke="#7e9de3" stroke-width="1.51"/><path d="M613,663L753,731L782,558Z" fill="#7fa7e7" stroke="#7fa7e7" stroke-width="1.51"/><path d="M501,598L613,663L656,523Z" fill="#7d9ae2" stroke="#7d9ae2" stroke-width="1.51"/><path d="M794,409L766,325L694,461Z" fill="#7c90df" stroke="#7c90df" stroke-width="1.51"/><path d="M918,347L766,325L794,409Z" fill="#7b91df" stroke="#7b91df" stroke-width="1.51"/><path d="M638,817L753,731L613,663Z" fill="#80ade9" stroke="#80ade9" stroke-width="1.51"/><path d="M621,385L533,419L656,523Z" fill="#7b8cdd" stroke="#7b8cdd" stroke-width="1.51"/><path d="M557,305L533,419L621,385Z" fill="#7982da" stroke="#7982da" stroke-width="1.51"/><path d="M533,419L501,598L656,523Z" fill="#7b90df" stroke="#7b90df" stroke-width="1.51"/><path d="M885,507L918,347L794,409Z" fill="#7d9ae2" stroke="#7d9ae2" stroke-width="1.51"/><path d="M1046,466L918,347L885,507Z" fill="#7ea1e5" stroke="#7ea1e5" stroke-width="1.51"/><path d="M605,232L557,305L621,385Z" fill="#787ed8" stroke="#787ed8" stroke-width="1.51"/><path d="M872,603L1005,533L885,507Z" fill="#80aae8" stroke="#80aae8" stroke-width="1.51"/><path d="M942,701L1005,533L872,603Z" fill="#80b1ea" stroke="#80b1ea" stroke-width="1.51"/><path d="M753,731L942,701L872,603Z" fill="#80b3eb" stroke="#80b3eb" stroke-width="1.51"/><path d="M592,668L638,817L613,663Z" fill="#7fa7e7" stroke="#7fa7e7" stroke-width="1.51"/><path d="M501,598L463,658L592,668Z" fill="#7d9ae2" stroke="#7d9ae2" stroke-width="1.51"/><path d="M435,592L463,658L501,598Z" fill="#7c94e0" stroke="#7c94e0" stroke-width="1.51"/><path d="M435,592L501,598L533,419Z" fill="#7b8ede" stroke="#7b8ede" stroke-width="1.51"/><path d="M379,411L435,592L533,419Z" fill="#7985db" stroke="#7985db" stroke-width="1.51"/><path d="M577,851L638,817L592,668Z" fill="#80ade9" stroke="#80ade9" stroke-width="1.51"/><path d="M753,731L878,806L942,701Z" fill="#81baed" stroke="#81baed" stroke-width="1.51"/><path d="M766,325L605,232L621,385Z" fill="#7983da" stroke="#7983da" stroke-width="1.51"/><path d="M752,159L605,232L766,325Z" fill="#787ed8" stroke="#787ed8" stroke-width="1.51"/><path d="M787,848L878,806L753,731Z" fill="#81bbee" stroke="#81bbee" stroke-width="1.51"/><path d="M1005,533L1046,466L885,507Z" fill="#7fa9e7" stroke="#7fa9e7" stroke-width="1.51"/><path d="M1154,605L1046,466L1005,533Z" fill="#80b2eb" stroke="#80b2eb" stroke-width="1.51"/><path d="M605,232L593,221L557,305Z" fill="#7678d6" stroke="#7678d6" stroke-width="1.51"/><path d="M752,159L593,221L605,232Z" fill="#7677d6" stroke="#7677d6" stroke-width="1.51"/><path d="M638,817L787,848L753,731Z" fill="#80b7ec" stroke="#80b7ec" stroke-width="1.51"/><path d="M830,169L752,159L766,325Z" fill="#7881d9" stroke="#7881d9" stroke-width="1.51"/><path d="M1046,466L1013,356L918,347Z" fill="#7e9fe4" stroke="#7e9fe4" stroke-width="1.51"/><path d="M942,701L1008,702L1005,533Z" fill="#81b8ec" stroke="#81b8ec" stroke-width="1.51"/><path d="M984,808L1008,702L942,701Z" fill="#81c1f0" stroke="#81c1f0" stroke-width="1.51"/><path d="M638,817L691,911L787,848Z" fill="#81bcee" stroke="#81bcee" stroke-width="1.51"/><path d="M469,849L577,851L592,668Z" fill="#80abe8" stroke="#80abe8" stroke-width="1.51"/><path d="M448,285L379,411L533,419Z" fill="#777bd7" stroke="#777bd7" stroke-width="1.51"/><path d="M448,285L533,419L557,305Z" fill="#777cd7" stroke="#777cd7" stroke-width="1.51"/><path d="M593,221L448,285L557,305Z" fill="#7676d5" stroke="#7676d5" stroke-width="1.51"/><path d="M830,169L766,325L918,347Z" fill="#7a8add" stroke="#7a8add" stroke-width="1.51"/><path d="M910,179L830,169L918,347Z" fill="#7a88dc" stroke="#7a88dc" stroke-width="1.51"/><path d="M992,934L984,808L878,806Z" fill="#82cbf3" stroke="#82cbf3" stroke-width="1.51"/><path d="M878,806L984,808L942,701Z" fill="#82c2f0" stroke="#82c2f0" stroke-width="1.51"/><path d="M717,25L657,59L752,159Z" fill="#746ed2" stroke="#746ed2" stroke-width="1.51"/><path d="M1044,184L910,179L918,347Z" fill="#7b8ddd" stroke="#7b8ddd" stroke-width="1.51"/><path d="M577,851L691,911L638,817Z" fill="#81b8ec" stroke="#81b8ec" stroke-width="1.51"/><path d="M787,848L877,964L878,806Z" fill="#82c6f1" stroke="#82c6f1" stroke-width="1.51"/><path d="M463,658L469,849L592,668Z" fill="#7ea2e5" stroke="#7ea2e5" stroke-width="1.51"/><path d="M577,851L600,956L691,911Z" fill="#81bbed" stroke="#81bbed" stroke-width="1.51"/><path d="M443,858L469,849L463,658Z" fill="#7fa5e6" stroke="#7fa5e6" stroke-width="1.51"/><path d="M443,858L463,658L300,724Z" fill="#7e9ee3" stroke="#7e9ee3" stroke-width="1.51"/><path d="M691,911L725,941L787,848Z" fill="#81c2f0" stroke="#81c2f0" stroke-width="1.51"/><path d="M600,956L725,941L691,911Z" fill="#81beef" stroke="#81beef" stroke-width="1.51"/><path d="M1116,762L1123,681L1008,702Z" fill="#82c5f1" stroke="#82c5f1" stroke-width="1.51"/><path d="M1008,702L1123,681L1005,533Z" fill="#81bbee" stroke="#81bbee" stroke-width="1.51"/><path d="M1046,466L1111,312L1013,356Z" fill="#7ea1e5" stroke="#7ea1e5" stroke-width="1.51"/><path d="M910,179L924,137L830,169Z" fill="#7881d9" stroke="#7881d9" stroke-width="1.51"/><path d="M1044,184L924,137L910,179Z" fill="#7a87db" stroke="#7a87db" stroke-width="1.51"/><path d="M1123,681L1154,605L1005,533Z" fill="#81bbee" stroke="#81bbee" stroke-width="1.51"/><path d="M1013,356L1044,184L918,347Z" fill="#7c95e1" stroke="#7c95e1" stroke-width="1.51"/><path d="M471,975L600,956L577,851Z" fill="#81b6ec" stroke="#81b6ec" stroke-width="1.51"/><path d="M300,724L463,658L435,592Z" fill="#7c94e0" stroke="#7c94e0" stroke-width="1.51"/><path d="M1178,449L1111,312L1046,466Z" fill="#7fa8e7" stroke="#7fa8e7" stroke-width="1.51"/><path d="M471,975L577,851L469,849Z" fill="#80b2ea" stroke="#80b2ea" stroke-width="1.51"/><path d="M379,411L272,583L435,592Z" fill="#7985db" stroke="#7985db" stroke-width="1.51"/><path d="M262,424L272,583L379,411Z" fill="#777cd7" stroke="#777cd7" stroke-width="1.51"/><path d="M1111,312L1083,239L1013,356Z" fill="#7d9be2" stroke="#7d9be2" stroke-width="1.51"/><path d="M984,808L1116,762L1008,702Z" fill="#82c6f2" stroke="#82c6f2" stroke-width="1.51"/><path d="M1123,681L1267,623L1154,605Z" fill="#82c3f1" stroke="#82c3f1" stroke-width="1.51"/><path d="M1078,898L1116,762L984,808Z" fill="#81cef5" stroke="#81cef5" stroke-width="1.51"/><path d="M1154,605L1178,449L1046,466Z" fill="#81b3eb" stroke="#81b3eb" stroke-width="1.51"/><path d="M1262,175L1168,132L1083,239Z" fill="#7d95e0" stroke="#7d95e0" stroke-width="1.51"/><path d="M725,941L842,970L787,848Z" fill="#81c5f1" stroke="#81c5f1" stroke-width="1.51"/><path d="M757,986L842,970L725,941Z" fill="#81c5f1" stroke="#81c5f1" stroke-width="1.51"/><path d="M666,1070L757,986L725,941Z" fill="#81c1f0" stroke="#81c1f0" stroke-width="1.51"/><path d="M1083,239L1044,184L1013,356Z" fill="#7c95e0" stroke="#7c95e0" stroke-width="1.51"/><path d="M842,970L877,964L787,848Z" fill="#81c8f2" stroke="#81c8f2" stroke-width="1.51"/><path d="M977,1001L877,964L842,970Z" fill="#81ccf4" stroke="#81ccf4" stroke-width="1.51"/><path d="M752,159L657,59L593,221Z" fill="#7472d4" stroke="#7472d4" stroke-width="1.51"/><path d="M436,109L386,166L448,285Z" fill="#7267d0" stroke="#7267d0" stroke-width="1.51"/><path d="M717,25L752,159L830,169Z" fill="#7575d5" stroke="#7575d5" stroke-width="1.51"/><path d="M272,583L300,724L435,592Z" fill="#7b8ede" stroke="#7b8ede" stroke-width="1.51"/><path d="M301,296L262,424L379,411Z" fill="#7573d4" stroke="#7573d4" stroke-width="1.51"/><path d="M301,296L379,411L448,285Z" fill="#7573d4" stroke="#7573d4" stroke-width="1.51"/><path d="M386,166L301,296L448,285Z" fill="#736ad1" stroke="#736ad1" stroke-width="1.51"/><path d="M436,109L448,285L593,221Z" fill="#736dd2" stroke="#736dd2" stroke-width="1.51"/><path d="M877,964L992,934L878,806Z" fill="#82cdf4" stroke="#82cdf4" stroke-width="1.51"/><path d="M657,59L538,62L593,221Z" fill="#726ad1" stroke="#726ad1" stroke-width="1.51"/><path d="M657,59L588,-64L538,62Z" fill="#7060cd" stroke="#7060cd" stroke-width="1.51"/><path d="M778,-52L717,25L896,-33Z" fill="#736bd1" stroke="#736bd1" stroke-width="1.51"/><path d="M717,25L830,169L896,-33Z" fill="#7471d4" stroke="#7471d4" stroke-width="1.51"/><path d="M538,62L436,109L593,221Z" fill="#7267d0" stroke="#7267d0" stroke-width="1.51"/><path d="M1044,184L961,77L924,137Z" fill="#7984da" stroke="#7984da" stroke-width="1.51"/><path d="M992,934L1078,898L984,808Z" fill="#82d2f6" stroke="#82d2f6" stroke-width="1.51"/><path d="M1178,449L1233,432L1111,312Z" fill="#80abe8" stroke="#80abe8" stroke-width="1.51"/><path d="M1083,239L1168,132L1044,184Z" fill="#7c91df" stroke="#7c91df" stroke-width="1.51"/><path d="M1273,554L1233,432L1178,449Z" fill="#81b6ec" stroke="#81b6ec" stroke-width="1.51"/><path d="M1273,554L1178,449L1154,605Z" fill="#81baee" stroke="#81baee" stroke-width="1.51"/><path d="M1208,770L1123,681L1116,762Z" fill="#82ccf4" stroke="#82ccf4" stroke-width="1.51"/><path d="M600,956L666,1070L725,941Z" fill="#81beee" stroke="#81beee" stroke-width="1.51"/><path d="M443,858L471,975L469,849Z" fill="#80b0ea" stroke="#80b0ea" stroke-width="1.51"/><path d="M373,958L471,975L443,858Z" fill="#80aee9" stroke="#80aee9" stroke-width="1.51"/><path d="M300,724L277,788L443,858Z" fill="#7e9ee3" stroke="#7e9ee3" stroke-width="1.51"/><path d="M249,784L277,788L300,724Z" fill="#7d97e1" stroke="#7d97e1" stroke-width="1.51"/><path d="M249,784L300,724L186,712Z" fill="#7c93df" stroke="#7c93df" stroke-width="1.51"/><path d="M471,975L539,1020L600,956Z" fill="#80b5ec" stroke="#80b5ec" stroke-width="1.51"/><path d="M992,934L1068,1060L1078,898Z" fill="#82d6f7" stroke="#82d6f7" stroke-width="1.51"/><path d="M877,964L977,1001L992,934Z" fill="#82cff5" stroke="#82cff5" stroke-width="1.51"/><path d="M666,1070L977,1001L842,970Z" fill="#81c8f2" stroke="#81c8f2" stroke-width="1.51"/><path d="M666,1070L842,970L757,986Z" fill="#81c3f0" stroke="#81c3f0" stroke-width="1.51"/><path d="M277,788L373,958L443,858Z" fill="#7fa7e7" stroke="#7fa7e7" stroke-width="1.51"/><path d="M186,712L300,724L272,583Z" fill="#7b8ddd" stroke="#7b8ddd" stroke-width="1.51"/><path d="M1078,898L1208,770L1116,762Z" fill="#82d2f6" stroke="#82d2f6" stroke-width="1.51"/><path d="M1194,940L1208,770L1078,898Z" fill="#82daf8" stroke="#82daf8" stroke-width="1.51"/><path d="M1267,623L1273,554L1154,605Z" fill="#81c2f0" stroke="#81c2f0" stroke-width="1.51"/><path d="M539,1020L666,1070L600,956Z" fill="#81baed" stroke="#81baed" stroke-width="1.51"/><path d="M1208,770L1267,623L1123,681Z" fill="#82caf3" stroke="#82caf3" stroke-width="1.51"/><path d="M386,166L267,200L301,296Z" fill="#7164cf" stroke="#7164cf" stroke-width="1.51"/><path d="M301,296L194,300L262,424Z" fill="#726cd2" stroke="#726cd2" stroke-width="1.51"/><path d="M262,424L160,583L272,583Z" fill="#787dd8" stroke="#787dd8" stroke-width="1.51"/><path d="M343,62L267,200L386,166Z" fill="#6e5dcc" stroke="#6e5dcc" stroke-width="1.51"/><path d="M236,956L373,958L277,788Z" fill="#7fa6e6" stroke="#7fa6e6" stroke-width="1.51"/><path d="M471,975L315,1079L539,1020Z" fill="#80afe9" stroke="#80afe9" stroke-width="1.51"/><path d="M539,1020L315,1079L666,1070Z" fill="#80b3eb" stroke="#80b3eb" stroke-width="1.51"/><path d="M155,420L160,583L262,424Z" fill="#7575d5" stroke="#7575d5" stroke-width="1.51"/><path d="M160,583L186,712L272,583Z" fill="#7985db" stroke="#7985db" stroke-width="1.51"/><path d="M249,784L236,956L277,788Z" fill="#7e9ee3" stroke="#7e9ee3" stroke-width="1.51"/><path d="M267,200L194,300L301,296Z" fill="#7164cf" stroke="#7164cf" stroke-width="1.51"/><path d="M717,25L588,-64L657,59Z" fill="#7163ce" stroke="#7163ce" stroke-width="1.51"/><path d="M538,62L428,11L436,109Z" fill="#6e5dcc" stroke="#6e5dcc" stroke-width="1.51"/><path d="M896,-33L830,169L924,137Z" fill="#767ad7" stroke="#767ad7" stroke-width="1.51"/><path d="M194,300L155,420L262,424Z" fill="#736cd2" stroke="#736cd2" stroke-width="1.51"/><path d="M1233,432L1270,329L1111,312Z" fill="#7fa9e7" stroke="#7fa9e7" stroke-width="1.51"/><path d="M1044,184L1144,31L961,77Z" fill="#7985da" stroke="#7985da" stroke-width="1.51"/><path d="M1362,309L1270,329L1408,481Z" fill="#80b3eb" stroke="#80b3eb" stroke-width="1.51"/><path d="M961,77L896,-33L924,137Z" fill="#777ad6" stroke="#777ad6" stroke-width="1.51"/><path d="M1001,-48L896,-33L961,77Z" fill="#7575d5" stroke="#7575d5" stroke-width="1.51"/><path d="M436,109L343,62L386,166Z" fill="#6e5dcc" stroke="#6e5dcc" stroke-width="1.51"/><path d="M457,-80L428,11L538,62Z" fill="#6c57ca" stroke="#6c57ca" stroke-width="1.51"/><path d="M1262,175L1083,239L1111,312Z" fill="#7d9ae2" stroke="#7d9ae2" stroke-width="1.51"/><path d="M368,34L343,62L436,109Z" fill="#6d58cb" stroke="#6d58cb" stroke-width="1.51"/><path d="M96,256L101,341L194,300Z" fill="#6f5fcd" stroke="#6f5fcd" stroke-width="1.51"/><path d="M616,-118L588,-64L717,25Z" fill="#7062ce" stroke="#7062ce" stroke-width="1.51"/><path d="M457,-80L368,34L428,11Z" fill="#6b53c9" stroke="#6b53c9" stroke-width="1.51"/><path d="M428,11L368,34L436,109Z" fill="#6d58cb" stroke="#6d58cb" stroke-width="1.51"/><path d="M155,420L96,543L160,583Z" fill="#7676d5" stroke="#7676d5" stroke-width="1.51"/><path d="M160,583L75,697L186,712Z" fill="#7985da" stroke="#7985da" stroke-width="1.51"/><path d="M101,341L123,428L155,420Z" fill="#7269d1" stroke="#7269d1" stroke-width="1.51"/><path d="M123,428L96,543L155,420Z" fill="#7470d3" stroke="#7470d3" stroke-width="1.51"/><path d="M1208,770L1342,676L1267,623Z" fill="#82cef5" stroke="#82cef5" stroke-width="1.51"/><path d="M1068,1060L1194,940L1078,898Z" fill="#81daf8" stroke="#81daf8" stroke-width="1.51"/><path d="M872,-161L738,-119L778,-52Z" fill="#736bd1" stroke="#736bd1" stroke-width="1.51"/><path d="M778,-52L738,-119L717,25Z" fill="#7268d0" stroke="#7268d0" stroke-width="1.51"/><path d="M1144,31L1001,-48L961,77Z" fill="#777cd7" stroke="#777cd7" stroke-width="1.51"/><path d="M1273,554L1372,528L1233,432Z" fill="#81bdef" stroke="#81bdef" stroke-width="1.51"/><path d="M1267,623L1372,528L1273,554Z" fill="#82c4f1" stroke="#82c4f1" stroke-width="1.51"/><path d="M1330,862L1342,676L1208,770Z" fill="#82d8f8" stroke="#82d8f8" stroke-width="1.51"/><path d="M977,1001L1068,1060L992,934Z" fill="#82d3f6" stroke="#82d3f6" stroke-width="1.51"/><path d="M666,1070L1068,1060L977,1001Z" fill="#81cdf4" stroke="#81cdf4" stroke-width="1.51"/><path d="M1168,132L1144,31L1044,184Z" fill="#7a8bdd" stroke="#7a8bdd" stroke-width="1.51"/><path d="M1270,329L1262,175L1111,312Z" fill="#7ea1e4" stroke="#7ea1e4" stroke-width="1.51"/><path d="M1302,177L1262,175L1270,329Z" fill="#7ea0e4" stroke="#7ea0e4" stroke-width="1.51"/><path d="M872,-161L778,-52L896,-33Z" fill="#746fd2" stroke="#746fd2" stroke-width="1.51"/><path d="M1230,55L1144,31L1168,132Z" fill="#7b8bdc" stroke="#7b8bdc" stroke-width="1.51"/><path d="M1342,676L1372,528L1267,623Z" fill="#81caf3" stroke="#81caf3" stroke-width="1.51"/><path d="M-69,454L-53,546L96,543Z" fill="#736dd2" stroke="#736dd2" stroke-width="1.51"/><path d="M194,300L101,341L155,420Z" fill="#7166d0" stroke="#7166d0" stroke-width="1.51"/><path d="M167,167L194,300L267,200Z" fill="#6e5dcc" stroke="#6e5dcc" stroke-width="1.51"/><path d="M588,-64L457,-80L538,62Z" fill="#6e5acb" stroke="#6e5acb" stroke-width="1.51"/><path d="M738,-119L616,-118L717,25Z" fill="#7165cf" stroke="#7165cf" stroke-width="1.51"/><path d="M75,799L249,784L186,712Z" fill="#7b91df" stroke="#7b91df" stroke-width="1.51"/><path d="M110,876L236,956L249,784Z" fill="#7e9de3" stroke="#7e9de3" stroke-width="1.51"/><path d="M373,958L315,1079L471,975Z" fill="#7face8" stroke="#7face8" stroke-width="1.51"/><path d="M561,-177L457,-80L588,-64Z" fill="#6e5bcb" stroke="#6e5bcb" stroke-width="1.51"/><path d="M196,74L267,200L343,62Z" fill="#6c55c9" stroke="#6c55c9" stroke-width="1.51"/><path d="M196,74L167,167L267,200Z" fill="#6c55ca" stroke="#6c55ca" stroke-width="1.51"/><path d="M196,74L343,62L212,-3Z" fill="#694cc7" stroke="#694cc7" stroke-width="1.51"/><path d="M96,543L75,697L160,583Z" fill="#777dd8" stroke="#777dd8" stroke-width="1.51"/><path d="M-1,691L75,697L96,543Z" fill="#787ed8" stroke="#787ed8" stroke-width="1.51"/><path d="M1408,481L1270,329L1233,432Z" fill="#80b4eb" stroke="#80b4eb" stroke-width="1.51"/><path d="M1262,175L1230,55L1168,132Z" fill="#7c92df" stroke="#7c92df" stroke-width="1.51"/><path d="M1362,309L1302,177L1270,329Z" fill="#7fa7e7" stroke="#7fa7e7" stroke-width="1.51"/><path d="M167,167L96,256L194,300Z" fill="#6e5bcc" stroke="#6e5bcc" stroke-width="1.51"/><path d="M-53,546L-1,691L96,543Z" fill="#7676d5" stroke="#7676d5" stroke-width="1.51"/><path d="M1468,484L1408,481L1372,528Z" fill="#81c4f1" stroke="#81c4f1" stroke-width="1.51"/><path d="M1372,528L1408,481L1233,432Z" fill="#81beef" stroke="#81beef" stroke-width="1.51"/><path d="M1001,-48L872,-161L896,-33Z" fill="#7573d4" stroke="#7573d4" stroke-width="1.51"/><path d="M1084,-104L1032,-91L1001,-48Z" fill="#777bd7" stroke="#777bd7" stroke-width="1.51"/><path d="M1084,-104L1001,-48L1144,31Z" fill="#777dd7" stroke="#777dd7" stroke-width="1.51"/><path d="M1302,177L1230,55L1262,175Z" fill="#7d96e1" stroke="#7d96e1" stroke-width="1.51"/><path d="M236,956L315,1079L373,958Z" fill="#7fa7e6" stroke="#7fa7e6" stroke-width="1.51"/><path d="M666,1070L1263,1065L1068,1060Z" fill="#82d3f6" stroke="#82d3f6" stroke-width="1.51"/><path d="M167,167L-20,146L96,256Z" fill="#6a51c8" stroke="#6a51c8" stroke-width="1.51"/><path d="M212,-3L343,62L368,34Z" fill="#6a4fc7" stroke="#6a4fc7" stroke-width="1.51"/><path d="M1194,940L1330,862L1208,770Z" fill="#82defa" stroke="#82defa" stroke-width="1.51"/><path d="M1342,676L1426,694L1372,528Z" fill="#82cff5" stroke="#82cff5" stroke-width="1.51"/><path d="M1397,848L1330,862L1459,995Z" fill="#81ecfe" stroke="#81ecfe" stroke-width="1.51"/><path d="M1032,-91L872,-161L1001,-48Z" fill="#7576d5" stroke="#7576d5" stroke-width="1.51"/><path d="M738,-119L561,-177L616,-118Z" fill="#7061ce" stroke="#7061ce" stroke-width="1.51"/><path d="M236,956L151,972L315,1079Z" fill="#7ea2e5" stroke="#7ea2e5" stroke-width="1.51"/><path d="M75,697L75,799L186,712Z" fill="#7b8adc" stroke="#7b8adc" stroke-width="1.51"/><path d="M75,799L110,876L249,784Z" fill="#7c94e0" stroke="#7c94e0" stroke-width="1.51"/><path d="M254,-128L212,-3L368,34Z" fill="#684ac6" stroke="#684ac6" stroke-width="1.51"/><path d="M616,-118L561,-177L588,-64Z" fill="#6f5ecd" stroke="#6f5ecd" stroke-width="1.51"/><path d="M872,-161L561,-177L738,-119Z" fill="#7167d0" stroke="#7167d0" stroke-width="1.51"/><path d="M1237,-8L1084,-104L1144,31Z" fill="#7982d9" stroke="#7982d9" stroke-width="1.51"/><path d="M1032,-91L1084,-104L872,-161Z" fill="#7678d6" stroke="#7678d6" stroke-width="1.51"/><path d="M1421,741L1426,694L1342,676Z" fill="#82d8f8" stroke="#82d8f8" stroke-width="1.51"/><path d="M1408,481L1430,356L1362,309Z" fill="#81b8ec" stroke="#81b8ec" stroke-width="1.51"/><path d="M1505,224L1382,95L1302,177Z" fill="#7fa1e4" stroke="#7fa1e4" stroke-width="1.51"/><path d="M1386,3L1237,-8L1230,55Z" fill="#7a8cdd" stroke="#7a8cdd" stroke-width="1.51"/><path d="M1468,484L1430,356L1408,481Z" fill="#81c0ef" stroke="#81c0ef" stroke-width="1.51"/><path d="M2,982L151,972L110,876Z" fill="#7d99e2" stroke="#7d99e2" stroke-width="1.51"/><path d="M110,876L151,972L236,956Z" fill="#7e9ee4" stroke="#7e9ee4" stroke-width="1.51"/><path d="M1330,862L1421,741L1342,676Z" fill="#82dbf9" stroke="#82dbf9" stroke-width="1.51"/><path d="M196,74L137,55L167,167Z" fill="#694dc6" stroke="#694dc6" stroke-width="1.51"/><path d="M254,-128L368,34L457,-80Z" fill="#6a4fc8" stroke="#6a4fc8" stroke-width="1.51"/><path d="M1230,55L1237,-8L1144,31Z" fill="#7a88db" stroke="#7a88db" stroke-width="1.51"/><path d="M1382,95L1230,55L1302,177Z" fill="#7d96e0" stroke="#7d96e0" stroke-width="1.51"/><path d="M75,697L-1,691L75,799Z" fill="#7a86da" stroke="#7a86da" stroke-width="1.51"/><path d="M-63,882L2,982L110,876Z" fill="#7c95e0" stroke="#7c95e0" stroke-width="1.51"/><path d="M96,543L123,428L-69,454Z" fill="#736cd2" stroke="#736cd2" stroke-width="1.51"/><path d="M1520,519L1372,528L1426,694Z" fill="#82cef4" stroke="#82cef4" stroke-width="1.51"/><path d="M1520,519L1468,484L1372,528Z" fill="#81c7f2" stroke="#81c7f2" stroke-width="1.51"/><path d="M1330,862L1397,848L1421,741Z" fill="#81e3fb" stroke="#81e3fb" stroke-width="1.51"/><path d="M1309,1060L1330,862L1194,940Z" fill="#81e4fc" stroke="#81e4fc" stroke-width="1.51"/><path d="M-69,454L123,428L101,341Z" fill="#7166cf" stroke="#7166cf" stroke-width="1.51"/><path d="M212,-3L137,55L196,74Z" fill="#6748c5" stroke="#6748c5" stroke-width="1.51"/><path d="M1623,1069L1263,1065L666,1070Z" fill="#81defa" stroke="#81defa" stroke-width="1.51"/><path d="M1068,1060L1263,1065L1194,940Z" fill="#82defa" stroke="#82defa" stroke-width="1.51"/><path d="M-69,454L101,341L-46,320Z" fill="#6f5ecd" stroke="#6f5ecd" stroke-width="1.51"/><path d="M1505,224L1362,309L1430,356Z" fill="#80b1ea" stroke="#80b1ea" stroke-width="1.51"/><path d="M1505,224L1302,177L1362,309Z" fill="#7fa9e7" stroke="#7fa9e7" stroke-width="1.51"/><path d="M561,-177L372,-181L457,-80Z" fill="#6c56ca" stroke="#6c56ca" stroke-width="1.51"/><path d="M212,-3L60,-53L137,55Z" fill="#6540c2" stroke="#6540c2" stroke-width="1.51"/><path d="M1263,1065L1309,1060L1194,940Z" fill="#81e3fb" stroke="#81e3fb" stroke-width="1.51"/><path d="M1468,484L1527,387L1430,356Z" fill="#81bdee" stroke="#81bdee" stroke-width="1.51"/><path d="M1609,510L1520,519L1641,654Z" fill="#81ccf4" stroke="#81ccf4" stroke-width="1.51"/><path d="M1581,465L1520,519L1609,510Z" fill="#82c6f1" stroke="#82c6f1" stroke-width="1.51"/><path d="M-46,320L101,341L96,256Z" fill="#6e5bcb" stroke="#6e5bcb" stroke-width="1.51"/><path d="M-50,229L-46,320L96,256Z" fill="#6b54c9" stroke="#6b54c9" stroke-width="1.51"/><path d="M372,-181L254,-128L457,-80Z" fill="#6a4fc8" stroke="#6a4fc8" stroke-width="1.51"/><path d="M-20,146L-50,229L96,256Z" fill="#694ec7" stroke="#694ec7" stroke-width="1.51"/><path d="M1581,465L1527,387L1468,484Z" fill="#81c1ef" stroke="#81c1ef" stroke-width="1.51"/><path d="M-95,356L-91,474L-69,454Z" fill="#7064cf" stroke="#7064cf" stroke-width="1.51"/><path d="M-69,454L-91,474L-53,546Z" fill="#726bd1" stroke="#726bd1" stroke-width="1.51"/><path d="M-79,825L75,799L-1,691Z" fill="#7a87db" stroke="#7a87db" stroke-width="1.51"/><path d="M-46,320L-95,356L-69,454Z" fill="#6f5fcd" stroke="#6f5fcd" stroke-width="1.51"/><path d="M-20,146L167,167L137,55Z" fill="#694bc6" stroke="#694bc6" stroke-width="1.51"/><path d="M-52,12L-20,146L137,55Z" fill="#6540c2" stroke="#6540c2" stroke-width="1.51"/><path d="M-138,216L-95,356L-46,320Z" fill="#6c57ca" stroke="#6c57ca" stroke-width="1.51"/><path d="M1527,387L1505,224L1430,356Z" fill="#81b4eb" stroke="#81b4eb" stroke-width="1.51"/><path d="M1382,95L1386,3L1230,55Z" fill="#7c92df" stroke="#7c92df" stroke-width="1.51"/><path d="M1237,-8L1231,-170L1084,-104Z" fill="#7984da" stroke="#7984da" stroke-width="1.51"/><path d="M1484,57L1386,3L1382,95Z" fill="#7c97e1" stroke="#7c97e1" stroke-width="1.51"/><path d="M-79,825L-1,691L-161,736Z" fill="#7985da" stroke="#7985da" stroke-width="1.51"/><path d="M-63,882L110,876L75,799Z" fill="#7c91df" stroke="#7c91df" stroke-width="1.51"/><path d="M151,972L56,1077L315,1079Z" fill="#7e9ee4" stroke="#7e9ee4" stroke-width="1.51"/><path d="M1084,-104L1231,-170L872,-161Z" fill="#777cd7" stroke="#777cd7" stroke-width="1.51"/><path d="M872,-161L1231,-170L561,-177Z" fill="#7471d3" stroke="#7471d3" stroke-width="1.51"/><path d="M561,-177L1325,-172L372,-181Z" fill="#7269d0" stroke="#7269d0" stroke-width="1.51"/><path d="M1325,-172L1231,-170L1237,-8Z" fill="#7a88dc" stroke="#7a88dc" stroke-width="1.51"/><path d="M-161,736L-1,691L-53,546Z" fill="#777bd7" stroke="#777bd7" stroke-width="1.51"/><path d="M1624,802L1421,741L1397,848Z" fill="#81e4fc" stroke="#81e4fc" stroke-width="1.51"/><path d="M1520,519L1426,694L1641,654Z" fill="#82d2f6" stroke="#82d2f6" stroke-width="1.51"/><path d="M1520,519L1581,465L1468,484Z" fill="#81c5f1" stroke="#81c5f1" stroke-width="1.51"/><path d="M1527,387L1593,274L1505,224Z" fill="#80b1ea" stroke="#80b1ea" stroke-width="1.51"/><path d="M-79,825L-63,882L75,799Z" fill="#7b8dde" stroke="#7b8dde" stroke-width="1.51"/><path d="M-185,1039L56,1077L2,982Z" fill="#7c94e0" stroke="#7c94e0" stroke-width="1.51"/><path d="M2,982L56,1077L151,972Z" fill="#7d98e1" stroke="#7d98e1" stroke-width="1.51"/><path d="M1309,1060L1459,995L1330,862Z" fill="#81eafe" stroke="#81eafe" stroke-width="1.51"/><path d="M54,-145L60,-53L254,-128Z" fill="#643fc2" stroke="#643fc2" stroke-width="1.51"/><path d="M254,-128L60,-53L212,-3Z" fill="#6643c3" stroke="#6643c3" stroke-width="1.51"/><path d="M1581,465L1593,274L1527,387Z" fill="#81baed" stroke="#81baed" stroke-width="1.51"/><path d="M1641,654L1426,694L1624,802Z" fill="#82dcf9" stroke="#82dcf9" stroke-width="1.51"/><path d="M1459,995L1506,947L1397,848Z" fill="#80efff" stroke="#80efff" stroke-width="1.51"/><path d="M1386,3L1325,-172L1237,-8Z" fill="#7a8cdd" stroke="#7a8cdd" stroke-width="1.51"/><path d="M1505,224L1484,57L1382,95Z" fill="#7ea0e4" stroke="#7ea0e4" stroke-width="1.51"/><path d="M1586,156L1484,57L1505,224Z" fill="#7ea2e5" stroke="#7ea2e5" stroke-width="1.51"/><path d="M1484,57L1447,-15L1386,3Z" fill="#7c95e0" stroke="#7c95e0" stroke-width="1.51"/><path d="M1609,510L1593,274L1581,465Z" fill="#81beee" stroke="#81beee" stroke-width="1.51"/><path d="M-79,825L-198,861L-63,882Z" fill="#7b8fde" stroke="#7b8fde" stroke-width="1.51"/><path d="M-63,882L-185,1039L2,982Z" fill="#7c94e0" stroke="#7c94e0" stroke-width="1.51"/><path d="M-200,581L-161,736L-53,546Z" fill="#7678d6" stroke="#7678d6" stroke-width="1.51"/><path d="M-170,750L-161,736L-200,581Z" fill="#787fd8" stroke="#787fd8" stroke-width="1.51"/><path d="M-95,356L-200,581L-91,474Z" fill="#7269d0" stroke="#7269d0" stroke-width="1.51"/><path d="M-50,229L-138,216L-46,320Z" fill="#6b53c9" stroke="#6b53c9" stroke-width="1.51"/><path d="M-20,146L-138,216L-50,229Z" fill="#694cc6" stroke="#694cc6" stroke-width="1.51"/><path d="M-146,124L-138,216L-20,146Z" fill="#6749c5" stroke="#6749c5" stroke-width="1.51"/><path d="M1476,-113L1325,-172L1386,3Z" fill="#7c91df" stroke="#7c91df" stroke-width="1.51"/><path d="M1231,-170L1325,-172L561,-177Z" fill="#777bd7" stroke="#777bd7" stroke-width="1.51"/><path d="M-161,736L-170,750L-79,825Z" fill="#7a87db" stroke="#7a87db" stroke-width="1.51"/><path d="M-200,581L-53,546L-91,474Z" fill="#746fd3" stroke="#746fd3" stroke-width="1.51"/><path d="M-138,216L-200,581L-95,356Z" fill="#6f60cd" stroke="#6f60cd" stroke-width="1.51"/><path d="M1624,802L1426,694L1421,741Z" fill="#81dffa" stroke="#81dffa" stroke-width="1.51"/><path d="M1609,510L1641,654L1593,274Z" fill="#81c4f1" stroke="#81c4f1" stroke-width="1.51"/><path d="M60,-53L-52,12L137,55Z" fill="#633ac0" stroke="#633ac0" stroke-width="1.51"/><path d="M1447,-15L1476,-113L1386,3Z" fill="#7c94e0" stroke="#7c94e0" stroke-width="1.51"/><path d="M1620,13L1476,-113L1447,-15Z" fill="#7c94e0" stroke="#7c94e0" stroke-width="1.51"/><path d="M1593,274L1586,156L1505,224Z" fill="#7faae7" stroke="#7faae7" stroke-width="1.51"/><path d="M1620,13L1586,156L1593,274Z" fill="#7ea3e5" stroke="#7ea3e5" stroke-width="1.51"/><path d="M1506,947L1624,802L1397,848Z" fill="#81ebfe" stroke="#81ebfe" stroke-width="1.51"/><path d="M60,-53L0,-141L-52,12Z" fill="#6136bf" stroke="#6136bf" stroke-width="1.51"/><path d="M372,-181L54,-145L254,-128Z" fill="#6746c4" stroke="#6746c4" stroke-width="1.51"/><path d="M1506,947L1580,943L1624,802Z" fill="#80eeff" stroke="#80eeff" stroke-width="1.51"/><path d="M1623,1069L1580,943L1506,947Z" fill="#80efff" stroke="#80efff" stroke-width="1.51"/><path d="M1623,1069L1506,947L1459,995Z" fill="#80efff" stroke="#80efff" stroke-width="1.51"/><path d="M-115,-13L-146,124L-52,12Z" fill="#633bc1" stroke="#633bc1" stroke-width="1.51"/><path d="M-52,12L-146,124L-20,146Z" fill="#6541c3" stroke="#6541c3" stroke-width="1.51"/><path d="M-138,216L-146,124L-200,581Z" fill="#6d58ca" stroke="#6d58ca" stroke-width="1.51"/><path d="M54,-145L0,-141L60,-53Z" fill="#6239c0" stroke="#6239c0" stroke-width="1.51"/><path d="M-95,-167L0,-141L54,-145Z" fill="#6136bf" stroke="#6136bf" stroke-width="1.51"/><path d="M-200,581L-198,861L-170,750Z" fill="#7983d9" stroke="#7983d9" stroke-width="1.51"/><path d="M-170,750L-198,861L-79,825Z" fill="#7a8bdd" stroke="#7a8bdd" stroke-width="1.51"/><path d="M1620,13L1447,-15L1484,57Z" fill="#7d95e0" stroke="#7d95e0" stroke-width="1.51"/><path d="M0,-141L-115,-13L-52,12Z" fill="#6136bf" stroke="#6136bf" stroke-width="1.51"/><path d="M1586,156L1620,13L1484,57Z" fill="#7d9be3" stroke="#7d9be3" stroke-width="1.51"/><path d="M1641,654L1620,13L1593,274Z" fill="#80b3eb" stroke="#80b3eb" stroke-width="1.51"/><path d="M-198,861L-185,1039L-63,882Z" fill="#7c94e0" stroke="#7c94e0" stroke-width="1.51"/><path d="M1309,1060L1623,1069L1459,995Z" fill="#80efff" stroke="#80efff" stroke-width="1.51"/><path d="M1580,943L1623,1069L1624,802Z" fill="#80efff" stroke="#80efff" stroke-width="1.51"/><path d="M1624,802L1623,1069L1641,654Z" fill="#81e9fd" stroke="#81e9fd" stroke-width="1.51"/><path d="M1263,1065L1623,1069L1309,1060Z" fill="#81ecfe" stroke="#81ecfe" stroke-width="1.51"/><path d="M315,1079L1623,1069L666,1070Z" fill="#82caf3" stroke="#82caf3" stroke-width="1.51"/><path d="M0,-141L-95,-167L-115,-13Z" fill="#6136bf" stroke="#6136bf" stroke-width="1.51"/><path d="M-115,-13L-95,-167L-146,124Z" fill="#6136bf" stroke="#6136bf" stroke-width="1.51"/><path d="M372,-181L-95,-167L54,-145Z" fill="#643ec2" stroke="#643ec2" stroke-width="1.51"/><path d="M1620,13L1606,-136L1476,-113Z" fill="#7c94e0" stroke="#7c94e0" stroke-width="1.51"/><path d="M1476,-113L1606,-136L1325,-172Z" fill="#7c94e0" stroke="#7c94e0" stroke-width="1.51"/></svg>